<?xml version="1.0" standalone="no"?><!DOCTYPE svg PUBLIC "-//W3C//DTD SVG 1.1//EN" "http://www.w3.org/Graphics/SVG/1.1/DTD/svg11.dtd"><svg t="1578292676904" class="icon" viewBox="0 0 1024 1024" version="1.1" xmlns="http://www.w3.org/2000/svg" p-id="11190" xmlns:xlink="http://www.w3.org/1999/xlink" width="200" height="200"><defs><style type="text/css"></style></defs><path d="M680.262 810.02c-18.463 8.498-38.267 14.106-58.53 16.575-14.905 2.26-24.41 1.82-40.905 0.648l-1.968-0.158c-103.2-9.63-180.862-95.154-180.862-198.853 0.168-53.965 21.268-104.159 59.032-141.751 37.931-37.47 92.631-58.067 145.97-57.899 46.262 0.168 86.238 16.203 127.172 42.83V188.656c0-17.164-18.403-34.99-35.442-34.99l-528.85-0.379c0-21.1 29.65-35.998 29.65-35.998H731.4c41.562-3.07 40.73 40.276 40.73 40.276V502.81c0 34.37 34.097 78.035 34.097 125.426 0 28.97-7.064 56.937-18.662 82.6l26.23 21.895-1.044-620.887c0-23.025-30.579-37.536-39.92-36.512H189.793c-86.998 0-86.935 81.128-86.935 81.128v741.93c0 17.037 13.67 14.005 30.834 14.005h634.699l-88.13-102.375zM269.664 285.11h293.701v40.933H269.664V285.11z m643.46 614.955L733.098 720.172c18.296-26.164 29.098-57.898 29.263-92.228 0.336-89.633-72.135-162.56-161.73-162.729-89.47-0.334-162.4 71.02-162.736 160.485-0.166 84.566 64.902 164.624 161.59 161.597 52.721-2.09 86.492-18.464 93.379-27.43L872.93 940.153c11.095 11.137 29.096 11.271 40.193 0.134 11.135-11.092 11.135-28.96 0-40.222z m-313.33-151.132c-67.196-0.168-121.497-54.76-121.331-121.994 0.169-67.194 54.93-121.492 122.166-121.158 67.03 0.127 121.332 54.76 121.163 121.996-0.166 67.192-54.929 121.49-121.998 121.156z m0 0" p-id="11191"></path></svg>