<?xml version="1.0" standalone="no"?><!DOCTYPE svg PUBLIC "-//W3C//DTD SVG 1.1//EN" "http://www.w3.org/Graphics/SVG/1.1/DTD/svg11.dtd"><svg t="1578302212598" class="icon" viewBox="0 0 1024 1024" version="1.1" xmlns="http://www.w3.org/2000/svg" p-id="2350" xmlns:xlink="http://www.w3.org/1999/xlink" width="200" height="200"><defs><style type="text/css"></style></defs><path d="M512.281 158.32c91.882 0 166.375 69.994 166.375 156.345 0 25.917-6.752 50.347-18.64 71.88l134.655 98.195c16.669-11.023 36.97-17.52 58.901-17.52 56.601 0 102.508 43.124 102.508 96.337 0 53.198-45.906 96.322-102.508 96.322-56.616 0-102.523-43.124-102.523-96.322 0-12.002 2.356-23.479 6.625-34.074l-134.64-98.181c-22.287 18.697-49.99 31.82-80.605 37.081v150.031c59.865 12.866 104.523 63.185 104.523 123.333 0 69.882-60.306 126.554-134.668 126.554-74.378 0-134.668-56.673-134.668-126.554 0-60.148 44.658-110.466 104.523-123.333V468.383c-30.628-5.263-58.32-18.386-80.605-37.081l-134.64 98.18c4.255 10.596 6.611 22.073 6.611 34.074 0 53.198-45.892 96.322-102.508 96.322-56.601 0-102.509-43.124-102.509-96.322 0-53.212 45.906-96.337 102.509-96.337 21.933 0 42.233 6.497 58.901 17.52l134.64-98.195c-11.874-21.533-18.626-45.962-18.626-71.88-0.002-86.35 74.491-156.345 166.375-156.345z" fill="" p-id="2351"></path></svg>