<?xml version="1.0" standalone="no"?><!DOCTYPE svg PUBLIC "-//W3C//DTD SVG 1.1//EN" "http://www.w3.org/Graphics/SVG/1.1/DTD/svg11.dtd"><svg t="1578281616955" class="icon" viewBox="0 0 1025 1024" version="1.1" xmlns="http://www.w3.org/2000/svg" p-id="35093" xmlns:xlink="http://www.w3.org/1999/xlink" width="200.1953125" height="200"><defs><style type="text/css"></style></defs><path d="M132.1 161.6l0 143.5c0 12.1 9.9 21.8 22.2 21.8l704.1 0c12.2 0 22.1-9.8 22.1-21.8L880.5 161.6c0-12-9.9-21.8-22.1-21.8L154.3 139.8C142.1 139.7 132.1 149.5 132.1 161.6zM1024 437.6c0-12-9.9-21.8-22.2-21.8L154.3 415.8c-12.2 0-22.2 9.8-22.2 21.8l0 143.5c0 12 9.9 21.8 22.2 21.8l847.6 0c12.3 0 22.2-9.8 22.2-21.8L1024.1 437.6zM712.6 713.7c0-12-9.9-21.8-22.1-21.8L154.3 691.9c-12.2 0-22.2 9.8-22.2 21.8l0 143.5c0 12 9.9 21.8 22.2 21.8l536.2 0c12.2 0 22.1-9.8 22.1-21.8L712.6 713.7 712.6 713.7zM73.8 987.7 73.8 36.3C73.8 16.3 57.3 0 36.9 0 16.5 0 0 16.3 0 36.3l0 951.4c0 20.1 16.5 36.3 36.9 36.3C57.3 1024 73.8 1007.8 73.8 987.7z" p-id="35094"></path></svg>