<?xml version="1.0" standalone="no"?><!DOCTYPE svg PUBLIC "-//W3C//DTD SVG 1.1//EN" "http://www.w3.org/Graphics/SVG/1.1/DTD/svg11.dtd"><svg t="1578387191470" class="icon" viewBox="0 0 1024 1024" version="1.1" xmlns="http://www.w3.org/2000/svg" p-id="20063" xmlns:xlink="http://www.w3.org/1999/xlink" width="200" height="200"><defs><style type="text/css"></style></defs><path d="M511.163 32.07c-264.364 0-478.677 214.314-478.677 478.684 0 264.364 214.314 478.677 478.677 478.677 264.37 0 478.684-214.314 478.684-478.677 0-264.37-214.314-478.684-478.684-478.684z m237.66 716.337a28.015 28.015 0 0 1-19.867 8.233 28.013 28.013 0 0 1-19.872-8.233L483.071 522.388V236.557c0-15.529 12.59-28.105 28.098-28.105 15.515 0 28.105 12.577 28.105 28.105v262.562l209.549 209.549c10.975 10.963 10.975 28.769 0 39.74z" p-id="20064"></path></svg>