<?xml version="1.0" standalone="no"?><!DOCTYPE svg PUBLIC "-//W3C//DTD SVG 1.1//EN" "http://www.w3.org/Graphics/SVG/1.1/DTD/svg11.dtd"><svg t="1578292632959" class="icon" viewBox="0 0 1024 1024" version="1.1" xmlns="http://www.w3.org/2000/svg" p-id="10847" xmlns:xlink="http://www.w3.org/1999/xlink" width="200" height="200"><defs><style type="text/css"></style></defs><path d="M986.88 513.28c-33.92-73.6-124.16-264.96-159.36-318.72-23.04-34.56-60.16-52.48-103.68-50.56-44.16 1.92-87.04 24.32-102.4 53.12-8.32 15.36-2.56 35.2 12.8 43.52s35.2 2.56 43.52-12.8c3.84-5.76 25.6-19.2 51.84-19.84 19.84 0 35.2 7.04 44.8 22.4 19.84 30.08 60.8 111.36 96.64 186.88-27.52-10.88-56.96-16.64-88.32-16.64-96.64 0-180.48 56.96-218.88 139.52C549.76 531.2 531.2 524.8 510.08 524.8c-20.48 0-37.12 5.76-50.56 14.08-39.04-81.92-122.24-138.24-218.24-138.24-30.72 0-60.16 5.76-87.04 16 36.48-75.52 76.8-156.8 96.64-186.88 10.24-15.36 24.96-22.4 44.8-22.4 26.24 0.64 48 14.08 51.84 19.84 8.32 15.36 27.52 21.12 43.52 12.8 15.36-8.32 21.12-27.52 12.8-43.52-15.36-28.8-58.88-51.2-102.4-53.12s-80.64 16-103.68 50.56c-34.56 52.48-121.6 236.16-156.8 313.6-25.6 38.4-40.96 84.48-40.96 133.76C0 775.04 108.16 883.2 241.28 883.2s241.28-108.16 241.28-241.28c0-11.52-0.64-23.04-2.56-34.56 1.28-2.56 9.6-18.56 30.08-18.56 17.28 0 28.8 11.52 33.92 17.92-1.92 11.52-2.56 23.68-2.56 35.2 0 133.12 108.16 241.28 241.28 241.28s241.28-108.16 241.28-241.28c0-47.36-13.44-90.88-37.12-128.64z" p-id="10848"></path></svg>