<?xml version="1.0" standalone="no"?><!DOCTYPE svg PUBLIC "-//W3C//DTD SVG 1.1//EN" "http://www.w3.org/Graphics/SVG/1.1/DTD/svg11.dtd"><svg t="1578385765776" class="icon" viewBox="0 0 1024 1024" version="1.1" xmlns="http://www.w3.org/2000/svg" p-id="14716" xmlns:xlink="http://www.w3.org/1999/xlink" width="200" height="200"><defs><style type="text/css"></style></defs><path d="M378.88 739.84c0-199.68 161.28-360.96 360.96-360.96 33.28 0 64 5.12 94.72 12.8V76.8c0-40.96-33.28-76.8-76.8-76.8H76.8C33.28 0 0 33.28 0 76.8v796.16c0 40.96 33.28 76.8 76.8 76.8h368.64c-40.96-61.44-66.56-133.12-66.56-209.92z m-189.44-588.8h455.68c20.48 0 38.4 17.92 38.4 38.4s-17.92 38.4-38.4 38.4H189.44c-20.48 0-38.4-17.92-38.4-38.4s17.92-38.4 38.4-38.4z m0 227.84h151.04c20.48 0 38.4 17.92 38.4 38.4s-17.92 38.4-38.4 38.4H189.44c-20.48 0-38.4-17.92-38.4-38.4s17.92-38.4 38.4-38.4z m76.8 304.64h-76.8c-20.48 0-38.4-17.92-38.4-38.4s17.92-38.4 38.4-38.4h76.8c20.48 0 38.4 17.92 38.4 38.4s-17.92 38.4-38.4 38.4z" p-id="14717" fill="#e98f36"></path><path d="M739.84 455.68c156.16 0 284.16 128 284.16 284.16S896 1024 739.84 1024 455.68 896 455.68 739.84s128-284.16 284.16-284.16z m51.2 281.6l64-64c15.36-15.36 15.36-38.4 0-53.76s-38.4-15.36-53.76 0l-64 64-64-64c-15.36-15.36-38.4-15.36-53.76 0s-15.36 38.4 0 53.76l64 64-64 64c-15.36 15.36-15.36 38.4 0 53.76s38.4 15.36 53.76 0l64-64 64 64c15.36 15.36 38.4 15.36 53.76 0s15.36-38.4 0-53.76l-64-64z" p-id="14718" fill="#e98f36"></path></svg>