<?xml version="1.0" standalone="no"?><!DOCTYPE svg PUBLIC "-//W3C//DTD SVG 1.1//EN" "http://www.w3.org/Graphics/SVG/1.1/DTD/svg11.dtd"><svg t="1578383378625" class="icon" viewBox="0 0 1024 1024" version="1.1" xmlns="http://www.w3.org/2000/svg" p-id="7575" xmlns:xlink="http://www.w3.org/1999/xlink" width="200" height="200"><defs><style type="text/css"></style></defs><path d="M512 0C230.4 0 0 230.4 0 512s230.4 512 512 512 512-230.4 512-512S793.6 0 512 0z" fill="#000000" p-id="7576"></path><path d="M358.78912 482.93888h285.96224c7.61856 0 13.824-9.58464 13.824-21.38112 0-11.8784-6.20544-21.4016-13.824-21.4016H358.78912c-7.63904 0-13.76256 9.5232-13.76256 21.4016 0 11.79648 6.144 21.38112 13.76256 21.38112z m0 119.56224h285.96224c7.61856 0 13.824-9.58464 13.824-21.38112 0-11.79648-6.20544-21.38112-13.824-21.38112H358.78912c-7.63904 0-13.76256 9.58464-13.76256 21.38112 0 11.79648 6.144 21.38112 13.76256 21.38112zM204.8 353.28c0-25.43616 20.41856-46.05952 45.48608-46.05952H753.2544C778.36288 307.2 798.72 327.82336 798.72 353.23904v337.77664c0 25.43616-20.35712 46.05952-45.48608 46.05952h-84.60288L607.80544 798.72l-60.78464-61.58336H250.2656C225.21856 737.0752 204.8 716.45184 204.8 691.01568v-55.00928a11.79648 11.79648 0 0 0 0.47104-2.29376v-113.70496a21.05344 21.05344 0 0 1-0.47104-3.95264c0-0.53248 0.3072-1.06496 0.3072-1.59744L204.8 353.23904z" fill="#FFFFFF" p-id="7577"></path></svg>