<?xml version="1.0" standalone="no"?><!DOCTYPE svg PUBLIC "-//W3C//DTD SVG 1.1//EN" "http://www.w3.org/Graphics/SVG/1.1/DTD/svg11.dtd"><svg t="1578281684527" class="icon" viewBox="0 0 1024 1024" version="1.1" xmlns="http://www.w3.org/2000/svg" p-id="35817" xmlns:xlink="http://www.w3.org/1999/xlink" width="200" height="200"><defs><style type="text/css"></style></defs><path d="M264.967295 714.06886c-16.478184 0-29.885231 13.408062-29.885231 29.890305 0 16.476154 13.406032 29.882186 29.885231 29.882187h232.673666c16.477169 0 29.883201-13.406032 29.883202-29.882187 0-16.482244-13.406032-29.890306-29.883202-29.890305H264.967295z" p-id="35818"></path><path d="M148.026586 880.292899c-5.343535-5.34658-8.284763-12.450996-8.281719-20.013139V162.272969c0-7.556053 2.942243-14.657424 8.289838-20.001974 5.339476-5.343535 12.439832-8.285778 19.9969-8.285779h338.507129v183.400486c0 13.156363 5.124313 25.52921 14.434143 34.844113 9.310844 9.304754 21.682676 14.428053 34.840053 14.428053h183.398456v207.270307h59.769448v-279.985014L599.238162 74.216784H168.03262c-23.523735 0-45.636735 9.160636-62.262082 25.791058-16.633466 16.628392-25.794103 38.740378-25.794103 62.265127V860.27976c0 48.553605 39.501565 88.056185 88.05517 88.056185h394.296074v-59.751179h-394.295059c-7.558083 0-14.662499-2.944273-20.006034-8.291867z m418.282611-573.402449V133.986231h4.210888l155.621206 172.904219H566.309197z" p-id="35819"></path><path d="M639.880494 603.777884c5.320192-9.219501 5.320192-20.670804 0-29.890306-5.323237-9.221531-15.244046-14.94972-25.88849-14.94972l-10.496267 0.018269H264.967295c-16.478184 0-29.885231 13.408062-29.885231 29.888276 0 16.478184 13.406032 29.884216 29.885231 29.884216h349.025723c10.645459-0.001015 20.566268-5.729204 25.887476-14.950735zM264.967295 463.614871h349.025723c10.646474 0 20.566268-5.728189 25.88849-14.948705 5.320192-9.219501 5.320192-20.672834-0.002029-29.891321-5.322222-9.220516-15.243031-14.948705-25.886461-14.948705H264.967295c-16.47311 0-29.876097 13.410092-29.876097 29.893351 0 16.484274 13.401972 29.89538 29.876097 29.89538zM264.663835 308.47981l97.259448 0.004059c16.479199 0 29.885231-13.408062 29.885231-29.888276 0-16.479199-13.406032-29.885231-29.885231-29.885231h-96.955988l-0.30346 0.00406c-16.279261 0.469906-29.031686 13.595821-29.031687 29.880157 0 16.288395 12.752426 29.41431 29.031687 29.885231zM944.013416 928.772415v-86.208022a20.681968 20.681968 0 0 0-10.26588-18.395362l-132.898241-82.865902c26.428426-12.039954 44.769997-38.287725 44.769996-68.73116 0-41.861246-34.604593-75.791934-77.268637-75.791934v-0.016239c-42.664045 0-77.267623 33.945912-77.267623 75.791934 0 30.455614 18.340556 56.7044 44.769996 68.744354l-132.901285 82.867932a20.675879 20.675879 0 0 0-10.266895 18.395362l-0.009135 86.519601c0 11.413751 9.288516 20.699222 20.704297 20.699222h309.941289c11.413751 0 20.700237-9.284456 20.700237-20.699222a5.263357 5.263357 0 0 0-0.008119-0.310564zM768.348624 769.793865l83.155153 51.856143H685.196515l83.152109-51.856143z m134.276497 138.583803H634.073141v-45.33632h268.550965v45.33632z" p-id="35820"></path></svg>