<?xml version="1.0" standalone="no"?><!DOCTYPE svg PUBLIC "-//W3C//DTD SVG 1.1//EN" "http://www.w3.org/Graphics/SVG/1.1/DTD/svg11.dtd"><svg t="1578281737596" class="icon" viewBox="0 0 1024 1024" version="1.1" xmlns="http://www.w3.org/2000/svg" p-id="38430" xmlns:xlink="http://www.w3.org/1999/xlink" width="200" height="200"><defs><style type="text/css"></style></defs><path d="M497.810286 643.291429c6.802286 6.875429 27.282286 6.875429 34.084571 0l218.258286-218.185143a20.992 20.992 0 0 0 6.875428-13.677715c0-13.604571-6.875429-27.282286-20.48-27.282285H613.668571V38.034286c0-13.677714-13.604571-20.48-20.48-20.48H429.641143c-13.604571 0-20.48 6.802286-20.48 20.48v339.382857H293.229714c-6.802286 0-13.604571 0-20.48 6.802286-6.802286 6.875429-6.802286 27.282286 0 34.157714l225.060572 224.987428z" p-id="38431"></path><path d="M1016.027429 547.84l-129.462858-218.258286c-6.875429-20.48-34.157714-27.282286-54.564571-13.604571-20.48 13.604571-27.282286 34.084571-13.604571 54.491428l102.253714 170.496h-170.496c-20.48 0-34.157714 13.677714-40.96 34.157715-6.802286 47.689143-34.084571 95.451429-68.169143 122.733714s-81.92 47.762286-129.609143 47.762286c-47.762286 0-95.451429-20.48-129.609143-47.762286-34.084571-34.157714-61.366857-75.044571-68.242285-122.733714 0-20.48-20.48-34.157714-40.886858-34.157715h-170.422857l102.253715-170.422857c13.677714-20.48 6.802286-40.96-13.604572-54.564571-20.48-13.677714-47.762286-6.875429-54.491428 13.604571L6.875429 554.642286C0 561.444571 0 568.32 0 575.122286v361.325714c0 20.48 20.48 40.96 40.96 40.96h940.982857c20.48 0 40.96-20.48 40.96-40.813714V575.122286c0 6.802286 0 0 0 0 0-6.802286 0-13.677714-6.875428-27.282286z" p-id="38432"></path></svg>