<?xml version="1.0" standalone="no"?><!DOCTYPE svg PUBLIC "-//W3C//DTD SVG 1.1//EN" "http://www.w3.org/Graphics/SVG/1.1/DTD/svg11.dtd"><svg t="1578281534621" class="icon" viewBox="0 0 1024 1024" version="1.1" xmlns="http://www.w3.org/2000/svg" p-id="32470" xmlns:xlink="http://www.w3.org/1999/xlink" width="200" height="200"><defs><style type="text/css"></style></defs><path d="M492.032 436.9408a332.544 332.544 0 0 0-52.2752 73.1648H146.2784V436.9408H492.032zM403.6608 660.224c0 23.7056 1.9456 46.5408 7.5776 69.3248H146.2784V656.384h257.3824v3.84z" p-id="32471"></path><path d="M0 71.2704v877.6704h576.5632a295.1168 295.1168 0 0 1-91.1872-73.1136H89.2928V144.384H715.264v187.136c5.632-0.9216 11.4176-0.9216 17.1008-0.9216 23.7568 0 48.4352 2.816 72.192 7.5776V71.2704H0z m0 0" p-id="32472"></path><path d="M781.7728 492.032l137.6768 139.6224 4.7616 4.7616c4.7616 4.8128 5.6832 11.4176 4.7616 18.0736v5.7344a21.1456 21.1456 0 0 1-5.632 18.0224l-4.8128 4.7616-138.7008 138.7008c-10.4448 9.5232-29.44 6.656-43.6736-7.5776s-17.1008-34.2528-7.5776-43.7248l76.9024-75.9808-204.1856-1.8944a36.352 36.352 0 0 1-36.096-37.0688c0-19.968 16.128-36.096 36.096-36.096l204.1856 1.9456-75.9808-76.9536c-9.472-10.4448-5.6832-29.44 8.6016-43.6736 14.1312-14.336 33.1776-19.0976 43.6736-8.6528z m0 0" p-id="32473"></path><path d="M806.4512 377.088h-1.8944a264.5504 264.5504 0 0 0-72.192-9.5232c-5.6832 0-10.4448 0-16.128 0.9728h-1.9968a289.9968 289.9968 0 0 0-170.9568 68.352c-1.8944 1.9456-2.8672 1.9456-4.7104 3.7888-22.784 19.968-42.752 42.752-57.9584 69.376-0.9728 1.9456-1.8944 1.9456-1.8944 3.84a301.056 301.056 0 0 0-39.8848 142.4896v3.84c0 23.7056 2.8672 46.5408 8.5504 69.3248 0 1.8944 0.9728 1.8944 0.9728 3.7376a285.184 285.184 0 0 0 86.4256 142.5408l3.84 3.7376a283.7504 283.7504 0 0 0 150.0672 69.3248c14.2336 1.8944 28.5184 3.84 42.7008 3.84l73.216-9.5232a291.328 291.328 0 0 0 209.92-356.2496c-24.7808-103.4752-104.6016-183.296-208.0768-209.8688z m0 515.7376h-1.8944a241.4592 241.4592 0 0 1-176.6912-13.312 14.848 14.848 0 0 1-6.656-3.7376c-119.6544-61.7472-166.2464-208.9984-104.4992-327.68a242.688 242.688 0 0 1 200.448-131.1232c5.632-0.9216 10.4448-0.9216 16.0768-0.9216a243.2 243.2 0 0 1 243.2 244.1728 244.7872 244.7872 0 0 1-169.984 232.6016z m0 0" p-id="32474"></path></svg>