<?xml version="1.0" standalone="no"?><!DOCTYPE svg PUBLIC "-//W3C//DTD SVG 1.1//EN" "http://www.w3.org/Graphics/SVG/1.1/DTD/svg11.dtd"><svg t="1578379657440" class="icon" viewBox="0 0 1024 1024" version="1.1" xmlns="http://www.w3.org/2000/svg" p-id="3847" xmlns:xlink="http://www.w3.org/1999/xlink" width="200" height="200"><defs><style type="text/css"></style></defs><path d="M537.961 76.927c-15.621-15.621-40.948-15.621-56.569 0L307.444 250.875l0.012 0.012c-15.15 15.655-15.003 40.622 0.46 56.085 15.463 15.463 40.43 15.609 56.085 0.46l0.012 0.012L468.48 202.977l2.538 394.406h0.017c0.358 21.783 18.115 39.333 39.983 39.333s39.626-17.551 39.983-39.333h0.017l-2.538-396.8 109.543 109.543 0.012-0.012c15.655 15.15 40.622 15.003 56.085-0.46 15.463-15.463 15.609-40.43 0.459-56.085l0.012-0.012-176.07-176.07c-0.094-0.094-0.193-0.18-0.287-0.273-0.093-0.094-0.179-0.193-0.273-0.287zM960.333 217.433V330.5h0.098v-50.741c0-58.783-0.04-60.557-0.098-62.326z" p-id="3848"></path><path d="M879.018 479.259v319.125c0 44.183-35.817 80-80 80h-576c-44.183 0-80-35.817-80-80V479.259c0-22.091-17.909-40-40-40s-40 17.909-40 40v319.125c0 88.366 71.634 160 160 160h576c88.366 0 160-71.634 160-160V479.259c0-22.091-17.909-40-40-40-22.092 0-40 17.909-40 40z" p-id="3849"></path><path d="M765.124 798.387h-505c-22 0-40-18-40-40s18-40 40-40h505c22 0 40 18 40 40s-18 40-40 40z" p-id="3850"></path></svg>