<?xml version="1.0" standalone="no"?><!DOCTYPE svg PUBLIC "-//W3C//DTD SVG 1.1//EN" "http://www.w3.org/Graphics/SVG/1.1/DTD/svg11.dtd"><svg t="1578280675445" class="icon" viewBox="0 0 1024 1024" version="1.1" xmlns="http://www.w3.org/2000/svg" p-id="4481" xmlns:xlink="http://www.w3.org/1999/xlink" width="200" height="200"><defs><style type="text/css"></style></defs><path d="M512.853333 972.8a34.133333 34.133333 0 0 1-34.133333-34.133333V602.9312l-112.401067 112.401067a34.133333 34.133333 0 1 1-48.264533-48.264534l170.666667-170.666666 0.034133-0.034134a34.013867 34.013867 0 0 1 28.535467-9.6768 33.9968 33.9968 0 0 1 19.899733 9.898667l170.461867 170.478933a34.133333 34.133333 0 1 1-48.264534 48.264534l-112.401066-112.401067V938.666667a34.133333 34.133333 0 0 1-34.133334 34.133333zM85.333333 256v-85.333333c0-56.8832 28.450133-85.333333 85.333334-85.333334h682.666666c56.8832 0 85.333333 28.450133 85.333334 85.333334v85.333333H85.333333z m42.666667-85.333333c0 11.946667 3.976533 21.896533 11.946667 29.866666 8.533333 8.533333 18.773333 12.8 30.72 12.8s21.896533-4.266667 29.866666-12.8c8.533333-7.970133 12.8-17.92 12.8-29.866666s-4.266667-22.186667-12.8-30.72c-7.970133-7.970133-17.92-11.946667-29.866666-11.946667s-22.186667 3.976533-30.72 11.946667c-7.970133 8.533333-11.946667 18.773333-11.946667 30.72z m256 0c0 11.946667 3.976533 21.896533 11.946667 29.866666 8.533333 8.533333 18.773333 12.8 30.72 12.8s21.896533-4.266667 29.866666-12.8c8.533333-7.970133 12.8-17.92 12.8-29.866666s-4.266667-22.186667-12.8-30.72c-7.970133-7.970133-17.92-11.946667-29.866666-11.946667s-22.186667 3.976533-30.72 11.946667c-7.970133 8.533333-11.946667 18.773333-11.946667 30.72z m-53.76 29.866666c8.533333-7.970133 12.8-17.92 12.8-29.866666s-4.266667-22.186667-12.8-30.72c-7.970133-7.970133-17.92-11.946667-29.866667-11.946667s-22.186667 3.976533-30.72 11.946667c-7.953067 8.533333-11.946667 18.773333-11.946666 30.72s3.976533 21.896533 11.946666 29.866666c8.533333 8.533333 18.773333 12.8 30.72 12.8s21.896533-4.266667 29.866667-12.8z" p-id="4482"></path><path d="M853.333333 870.4H682.666667a17.066667 17.066667 0 1 1 0-34.133333h170.666666c47.223467 0 68.266667-21.0432 68.266667-68.266667V273.066667H102.4v494.933333c0 47.223467 21.0432 68.266667 68.266667 68.266667h170.666666a17.066667 17.066667 0 1 1 0 34.133333H170.666667c-66.030933 0-102.4-36.369067-102.4-102.4V170.666667c0-66.030933 36.369067-102.4 102.4-102.4h682.666666c66.030933 0 102.4 36.369067 102.4 102.4v597.333333c0 66.030933-36.369067 102.4-102.4 102.4zM102.4 238.933333h819.2v-68.266666c0-47.223467-21.0432-68.266667-68.266667-68.266667H170.666667c-47.223467 0-68.266667 21.0432-68.266667 68.266667v68.266666z" p-id="4483"></path></svg>