<?xml version="1.0" standalone="no"?><!DOCTYPE svg PUBLIC "-//W3C//DTD SVG 1.1//EN" "http://www.w3.org/Graphics/SVG/1.1/DTD/svg11.dtd"><svg t="1578281100420" class="icon" viewBox="0 0 1280 1024" version="1.1" xmlns="http://www.w3.org/2000/svg" p-id="7435" xmlns:xlink="http://www.w3.org/1999/xlink" width="250" height="200"><defs><style type="text/css"></style></defs><path d="M1221 682.6c5.2-28.2 5.2-57 0-85.2l51.6-29.8c6-3.4 8.6-10.4 6.6-17-13.4-43.2-36.4-82.4-66.4-114.8-4.6-5-12-6.2-18-2.8l-51.6 29.8c-21.8-18.6-46.8-33-73.8-42.6v-59.6c0-6.8-4.8-12.8-11.4-14.2-44.6-10-90-9.6-132.4 0-6.6 1.4-11.4 7.4-11.4 14.2v59.6c-27 9.6-52 24-73.8 42.6l-51.6-29.8c-5.8-3.4-13.4-2.2-18 2.8-30 32.4-53 71.6-66.4 114.8-2 6.6 0.8 13.6 6.6 17l51.6 29.8c-5.2 28.2-5.2 57 0 85.2l-51.6 29.8c-6 3.4-8.6 10.4-6.6 17 13.4 43.2 36.4 82.2 66.4 114.8 4.6 5 12 6.2 18 2.8l51.6-29.8c21.8 18.6 46.8 33 73.8 42.6v59.6c0 6.8 4.8 12.8 11.4 14.2 44.6 10 90 9.6 132.4 0 6.6-1.4 11.4-7.4 11.4-14.2v-59.6c27-9.6 52-24 73.8-42.6l51.6 29.8c5.8 3.4 13.4 2.2 18-2.8 30-32.4 53-71.6 66.4-114.8 2-6.6-0.8-13.6-6.6-17l-51.6-29.8zM992 737c-53.6 0-97-43.6-97-97s43.6-97 97-97 97 43.6 97 97-43.4 97-97 97zM192 448c70.6 0 128-57.4 128-128s-57.4-128-128-128-128 57.4-128 128 57.4 128 128 128z m448 64c3.8 0 7.4-1 11.2-1.2 16.6-43.4 41-84.2 72.6-118.4 14.8-16 35.8-25.2 57.8-25.2 13.8 0 27.4 3.6 39.2 10.6l15.8 9.2c1.6-1 3.2-1.8 4.8-2.8 14-29.2 22.4-61.6 22.4-96 0-123.8-100.2-224-224-224S416 164.2 416 288c0 123.8 100.2 224 224 224z m210.4 389c-4.6-2.4-9.2-5.2-13.6-7.8-16.4 9.6-30.6 19.6-55 19.6-21.8 0-42.8-9.2-57.8-25.2-36.6-39.6-64.6-87.8-80.4-139.2-21.4-69 49.8-99.4 51.6-100.6-0.2-5.2-0.2-10.4 0-15.6l-15.8-9.2c-7.6-4.4-14-10-19.6-16.2-6.6 0.4-13 1.2-19.6 1.2-49.2 0-95.2-12-137-32h-16.6C359.2 576 256 679.2 256 806.4V864c0 53 43 96 96 96h510.8c-7.4-12-12.4-25.6-12.4-40.6v-18.4zM346.2 549.2C323 526.2 291.2 512 256 512H128c-70.6 0-128 57.4-128 128v64c0 35.4 28.6 64 64 64h131.8c12.6-94.8 69.8-174.6 150.4-218.8z" p-id="7436"></path></svg>