<?xml version="1.0" standalone="no"?><!DOCTYPE svg PUBLIC "-//W3C//DTD SVG 1.1//EN" "http://www.w3.org/Graphics/SVG/1.1/DTD/svg11.dtd"><svg t="1578385029349" class="icon" viewBox="0 0 1297 1024" version="1.1" xmlns="http://www.w3.org/2000/svg" p-id="8359" xmlns:xlink="http://www.w3.org/1999/xlink" width="253.3203125" height="200"><defs><style type="text/css"></style></defs><path d="M1194.666667 273.066667H284.4672L0 955.733333V136.533333h12.561067A204.117333 204.117333 0 0 1 204.8 0h136.533333a204.117333 204.117333 0 0 1 192.238934 136.533333H1194.666667a34.133333 34.133333 0 0 1 34.133333 34.133334v68.266666a34.133333 34.133333 0 0 1-34.133333 34.133334zM1297.066667 341.333333l-273.066667 682.666667H68.266667L341.333333 341.333333h955.733334z m-614.4 546.133334a204.8 204.8 0 1 0-204.8-204.8 204.8 204.8 0 0 0 204.8 204.8z m-34.133334-341.333334a34.133333 34.133333 0 0 1 34.133334 34.133334V682.666667l102.4 0.6144a33.5872 33.5872 0 1 1 0 67.1744l-131.618134-0.8192a38.434133 38.434133 0 0 1-4.7104 0.955733 34.133333 34.133333 0 0 1-34.133333-34.133333v-136.533334A34.133333 34.133333 0 0 1 648.533333 546.133333z" p-id="8360" fill="#409eff"></path></svg>