<?xml version="1.0" standalone="no"?><!DOCTYPE svg PUBLIC "-//W3C//DTD SVG 1.1//EN" "http://www.w3.org/Graphics/SVG/1.1/DTD/svg11.dtd"><svg t="1578302232386" class="icon" viewBox="0 0 1024 1024" version="1.1" xmlns="http://www.w3.org/2000/svg" p-id="3080" xmlns:xlink="http://www.w3.org/1999/xlink" width="200" height="200"><defs><style type="text/css"></style></defs><path d="M148.1 766.7c0-12.8-6.4-19.2-12.8-25.6-6.4-6.4-12.8-12.8-25.6-12.8s-19.2 6.4-25.6 12.8c-6.4 6.4-12.8 12.8-12.8 25.6s6.4 19.2 12.8 25.6c6.4 6.4 12.8 12.8 25.6 12.8s19.2-6.4 25.6-12.8c6.4-6.4 12.8-19.2 12.8-25.6z m805.6-332.5c0-19.2-6.4-38.4-19.2-51.2-12.8-12.8-38.4-19.2-57.5-19.2H550.9c0-6.4 0-19.2 6.4-25.6l19.2-38.4c6.4-6.4 12.8-19.2 19.2-38.4 6.4-19.2 6.4-32 6.4-51.2 0-25.6-6.4-44.8-25.6-57.5-19.2-12.8-38.4-12.8-63.9-12.8-6.4 0-25.6 25.6-51.2 76.7-6.4 19.2-19.2 32-19.2 44.8-12.8 25.6-38.4 51.1-63.9 83.1-32 25.6-51.1 51.1-57.5 57.5-25.6 19.2-57.5 32-83.1 32h-19.2v364.4h19.2c25.6 0 57.5 6.4 95.9 19.2 38.4 12.8 70.3 25.6 108.7 38.4 38.4 12.8 70.3 19.2 102.3 19.2 70.3 0 108.7-32 108.7-95.9v-32c12.8-6.4 19.2-19.2 25.6-32 6.4-12.8 12.8-25.6 12.8-44.8 0-19.2-6.4-25.6-12.8-38.4 19.2-19.2 32-44.8 32-70.3 0-6.4 0-19.2-6.4-32s-12.8-12.8-12.8-19.2h191.8c19.2 0 38.4-6.4 51.1-19.2 12.7-12.4 19.1-38 19.1-57.2z m70.3 0c0 38.4-12.8 76.7-44.8 102.3-25.6 32-63.9 44.8-102.3 44.8H781c0 25.6-6.4 44.8-19.2 70.3v25.6c0 38.4-12.8 70.3-32 102.3 0 51.1-12.8 95.9-51.1 127.9-32 32-76.7 44.8-127.9 44.8s-115.1-12.8-185.4-38.4c-63.9-25.6-102.3-32-127.9-32H71.3c-19.2 0-38.4-6.4-51.1-19.2C7.4 849.8 1 817.8 1 798.7V434.2C1 415 7.4 395.8 20.2 383c12.8-12.8 32-19.2 51.1-19.2h179c6.4 0 6.4-6.4 12.8-12.8l12.8-12.8c6.4 0 12.8-6.4 12.8-12.8 6.4 0 12.8-6.4 12.8-6.4l12.8-12.8c6.4-6.4 6.4-12.8 6.4-12.8 25.6-25.6 44.8-51.2 57.5-76.7 6.4-6.4 12.8-19.2 19.2-32 6.4-12.8 12.8-32 19.2-38.4 6.4-6.4 12.8-25.6 25.6-38.4 12.8-12.8 19.2-19.2 32-25.6 12.8-6.4 25.6-12.8 38.4-12.8 44.8 0 89.5 12.8 115.1 38.4 25.6 25.6 44.8 63.9 44.8 108.7 0 25.6-6.4 51.1-12.8 70.3h211c38.4 0 76.7 12.8 102.3 44.8 25.4 32.2 51 64.2 51 102.5z m0 0" fill="" p-id="3081"></path></svg>